<?xml version="1.0" encoding="UTF-8"?>
<svg id="Livello_1" data-name="Livello 1" xmlns="http://www.w3.org/2000/svg" xmlns:xlink="http://www.w3.org/1999/xlink" viewBox="0 0 500 500">
  <defs>
    <style>
      .cls-1 {
        fill: url(#Sfumatura_senza_nome_72);
      }
    </style>
    <linearGradient id="Sfumatura_senza_nome_72" data-name="Sfumatura senza nome 72" x1="0" y1="250" x2="500" y2="250" gradientUnits="userSpaceOnUse">
      <stop offset="0" stop-color="#0dcaf0"/>
      <stop offset=".11" stop-color="#0bc0f1"/>
      <stop offset=".3" stop-color="#07a7f6"/>
      <stop offset=".54" stop-color="#007efe"/>
      <stop offset=".55" stop-color="#007bff"/>
      <stop offset=".87" stop-color="#007bff"/>
      <stop offset=".99" stop-color="#0886a0"/>
    </linearGradient>
  </defs>
  <path class="cls-1" d="m397.2,0H102.8C46.03,0,0,46.03,0,102.8v294.4c0,56.77,46.03,102.8,102.8,102.8h294.4c56.77,0,102.8-46.03,102.8-102.8V102.8c0-56.77-46.03-102.8-102.8-102.8Zm-9.56,296.2h0c0,.45,0,.89,0,1.34,0,76.02-61.62,137.64-137.64,137.64s-137.64-61.62-137.64-137.64c0-.45,0-.89,0-1.34h0v-75.14l55.66,53.98v22.81c0,43.58,36.7,78.91,81.98,78.91s81.98-35.33,81.98-78.91v-22.81l55.66-53.98v75.14Zm0-154.18l-137.64,137.95L112.36,142.02v-77.2l137.64,137.95,137.64-137.95v77.2Z"/>
</svg>